<?xml version="1.0" encoding="utf-8"?>
<!-- Generator: Adobe Illustrator 22.1.0, SVG Export Plug-In . SVG Version: 6.00 Build 0)  -->
<svg version="1.1" id="Layer_1" xmlns="http://www.w3.org/2000/svg" xmlns:xlink="http://www.w3.org/1999/xlink" x="0px" y="0px"
	 viewBox="0 0 9.7 9.7" style="enable-background:new 0 0 9.7 9.7;" xml:space="preserve">
<style type="text/css">
	.st0{fill:#FFFFFF;}
</style>
<path class="st0" d="M9.5,1.6L6.2,4.9l3.3,3.3c0.4,0.4,0.4,1,0,1.3c-0.4,0.4-1,0.4-1.3,0L4.9,6.2L1.6,9.5c-0.4,0.4-1,0.4-1.3,0
	c-0.4-0.4-0.4-1,0-1.3l3.3-3.3L0.3,1.6c-0.4-0.4-0.4-1,0-1.3s1-0.4,1.3,0l3.3,3.3l3.3-3.3c0.4-0.4,1-0.4,1.3,0
	C9.8,0.6,9.8,1.2,9.5,1.6z"/>
</svg>
